<svg width="580" height="500" viewBox="0 0 580 500" fill="none" xmlns="http://www.w3.org/2000/svg">
<mask id="mask0_838_22901" style="mask-type:alpha" maskUnits="userSpaceOnUse" x="0" y="0" width="580" height="500">
<rect x="580" y="500" width="580" height="500" transform="rotate(180 580 500)" fill="#D9D9D9"/>
</mask>
<g mask="url(#mask0_838_22901)">
<g filter="url(#filter0_f_838_22901)">
<path d="M415.193 -5.54342C378.348 -22.4657 362.306 -65.8186 379.362 -102.375C396.418 -138.931 440.113 -154.847 476.957 -137.925C513.802 -121.003 529.844 -77.6499 512.788 -41.0937C495.732 -4.53753 452.037 11.3789 415.193 -5.54342Z" fill="#C333FF"/>
<path d="M604.268 -30.0659C556.77 -51.8814 536.089 -107.77 558.077 -154.897C580.064 -202.023 636.394 -222.542 683.893 -200.727C731.391 -178.911 752.072 -123.022 730.084 -75.8957C708.097 -28.7691 651.767 -8.25037 604.268 -30.0659Z" fill="#C333FF"/>
<path d="M506.313 -58.5933C452.156 -83.4671 428.576 -147.191 453.646 -200.924C478.716 -254.657 542.942 -278.052 597.099 -253.178C651.257 -228.305 674.837 -164.581 649.766 -110.848C624.696 -57.1148 560.47 -33.7196 506.313 -58.5933Z" fill="#C333FF"/>
<path d="M516.405 -85.9345C515.893 -131.632 552.816 -169.088 598.874 -169.596C644.932 -170.103 682.684 -133.47 683.195 -87.7722C683.707 -42.0749 646.784 -4.61852 600.726 -4.11102C554.668 -3.60354 516.916 -40.2371 516.405 -85.9345Z" fill="#C333FF"/>
<path d="M633.983 94.2273C633.324 35.3163 680.923 -12.9708 740.299 -13.625C799.675 -14.2793 848.343 32.9472 849.002 91.8582C849.662 150.769 802.063 199.056 742.687 199.711C683.311 200.365 634.642 153.138 633.983 94.2273Z" fill="#C333FF"/>
<path d="M615.63 -19.2305C614.878 -86.4001 669.15 -141.456 736.85 -142.202C804.549 -142.948 860.04 -89.1014 860.792 -21.9318C861.544 45.2378 807.272 100.294 739.572 101.04C671.873 101.786 616.382 47.9391 615.63 -19.2305Z" fill="#C333FF"/>
</g>
</g>
<defs>
<filter id="filter0_f_838_22901" x="129" y="-504" width="1051.24" height="990.275" filterUnits="userSpaceOnUse" color-interpolation-filters="sRGB">
<feFlood flood-opacity="0" result="BackgroundImageFix"/>
<feBlend mode="normal" in="SourceGraphic" in2="BackgroundImageFix" result="shape"/>
<feGaussianBlur stdDeviation="120" result="effect1_foregroundBlur_838_22901"/>
</filter>
</defs>
</svg>
