<svg width="20" height="20" viewBox="0 0 20 20" fill="none" xmlns="http://www.w3.org/2000/svg">
<path d="M17.1939 4.39024L10.3717 9.96683C10.2668 10.0524 10.1354 10.0992 9.99992 10.0992C9.86441 10.0992 9.73307 10.0524 9.62819 9.96683L2.80208 4.39024C3.14073 4.13693 3.55264 4 3.97596 4H16.02C16.4433 4 16.8552 4.13693 17.1939 4.39024Z" fill="#0A051E"/>
<path d="M10.001 11.2701C10.408 11.2701 10.8024 11.1295 11.1171 10.8722L17.8904 5.33463C17.9625 5.54036 17.9996 5.75669 18 5.97463V14.0293C17.9995 14.5518 17.7911 15.0527 17.4207 15.4222C17.0502 15.7917 16.5479 15.9995 16.024 16H3.97603C3.45212 15.9995 2.9498 15.7917 2.57934 15.4222C2.20887 15.0527 2.00052 14.5518 2 14.0293V5.97463C2.00043 5.75669 2.03746 5.54036 2.10956 5.33463L8.88481 10.8722C9.19958 11.1295 9.594 11.2701 10.001 11.2701Z" fill="#0A051E"/>
</svg>
