<svg width="69" height="32" viewBox="0 0 69 32" fill="none" xmlns="http://www.w3.org/2000/svg">
<path d="M8.09089 21.4509H2.51361L0 31.8256H2.85718L3.7989 27.9302H5.26754L7.80251 31.8256H10.9178L8.07665 27.6935C10.5974 27.0689 11.4554 25.7823 11.6139 24.405C11.7687 23.0294 10.9677 21.4491 8.08911 21.4491L8.09089 21.4509ZM8.77092 24.5544C8.65343 25.5688 7.65475 26.1667 6.26621 26.1667H4.22614L4.98627 23.0383H7.14384C8.28671 23.0383 8.88129 23.5721 8.77092 24.5544ZM16.0554 21.4527H18.9179L18.2521 24.2074L16.4096 31.8203H13.5097L16.0554 21.4527ZM40.2693 20.8779L40.2889 31.8185H37.5652L37.5937 24.0117L31.7957 31.8185H29.1432L26.7436 23.969L22.9019 31.8185H19.7297L25.4031 20.4313C25.8161 19.6963 26.2131 19.3689 26.9963 19.3653C27.5144 19.3618 28.0769 19.6483 28.335 20.5131L30.813 29.0531L37.2537 20.3245C37.8002 19.5842 38.2631 19.3582 38.9004 19.3742C39.5804 19.392 40.2658 19.8191 40.2658 20.8779H40.2693ZM59.5753 26.8749C59.383 28.5424 60.7128 29.8557 63.0431 29.8895C64.4459 29.9108 65.327 29.7542 66.4254 29.4606L65.8718 31.7402C64.7414 31.9217 63.9385 32 63.0164 32C58.4342 32 56.3051 29.8361 56.6469 26.8287C57.0332 23.4387 60.1717 21.1573 65.117 21.1573C66.0267 21.1573 67.4188 21.3068 68.2323 21.5008L67.7232 23.5899C66.7191 23.3337 65.6243 23.2749 64.777 23.2678C61.8931 23.2465 59.8334 24.6185 59.5771 26.8749H59.5753ZM47.7656 27.9427L50.4288 24.3587L51.2619 27.9427H47.7656ZM52.2356 31.8203H54.9878L52.3389 22.7891C51.9935 21.6947 51.3135 21.4064 50.6068 21.4634C50.1635 21.5008 49.7025 21.6876 49.2272 22.3211L42.3681 31.822H45.1862L46.5836 29.6973L51.7034 29.6919L52.2356 31.822V31.8203ZM57.0991 8.60982C56.5187 8.79845 30.9252 15.5411 30.5496 15.6336C30.0493 15.7564 29.5206 15.7279 29.0578 15.3204C28.3831 14.7278 28.6555 13.9075 28.8495 13.4911C29.0774 12.9999 34.0049 3.11462 34.0049 3.11462L14.3375 10.9802C13.5169 11.2524 13.2374 10.6082 13.2374 10.6082C13.2374 10.6082 12.8938 9.89464 13.791 9.49246C13.791 9.49246 35.0053 0.406168 35.3952 0.238892C35.7495 0.0876321 36.417 -0.213109 36.9351 0.238892C37.4709 0.706909 37.2501 1.37068 37.0917 1.79065C37.0152 1.98996 33.4744 11.3628 33.4744 11.3628C33.4744 11.3628 54.5463 2.74626 55.221 2.50068C56.5561 2.01665 57.7702 2.30316 58.6407 3.26233C59.0982 3.76771 59.8263 5.02228 59.3813 6.46904C59.0822 7.4371 58.4253 8.17917 57.0991 8.60804V8.60982Z" fill="#FF0000"/>
</svg>
