<svg width="20" height="20" viewBox="0 0 20 20" fill="none" xmlns="http://www.w3.org/2000/svg">
<path d="M12.6708 3.00568L10.0002 1.66675L3.3335 5.02406C3.3335 5.02406 3.3335 7.94173 3.3335 10.1C3.3335 14.6564 7.4878 17.2743 9.22865 18.1536C9.46604 18.2735 9.72321 18.3334 10.0002 18.3334C10.2573 18.3334 10.5145 18.2735 10.7717 18.1536C12.5125 17.2543 16.6668 14.6564 16.6668 10.1C16.6668 7.2223 16.6668 5.02406 16.6668 5.02406L12.6708 3.00568ZM10.0002 16.6548V10.08H5.015V6.06323L10.0199 3.54525V10.08H15.0249C15.0051 13.6971 11.5234 15.8754 10.0002 16.6548Z" fill="#0A051E"/>
</svg>
