<svg width="24" height="24" viewBox="0 0 24 24" fill="none" xmlns="http://www.w3.org/2000/svg">
<circle cx="12" cy="12" r="12" fill="#0A051E"/>
<path d="M13.977 6.60222L12.8113 6.59998C11.5017 6.59998 10.6553 7.6432 10.6553 9.25787V10.4833H9.48328C9.382 10.4833 9.29999 10.582 9.29999 10.7037V12.4792C9.29999 12.6009 9.3821 12.6994 9.48328 12.6994H10.6553V17.1798C10.6553 17.3014 10.7373 17.4 10.8386 17.4H12.3678C12.4691 17.4 12.5511 17.3013 12.5511 17.1798V12.6994H13.9215C14.0228 12.6994 14.1048 12.6009 14.1048 12.4792L14.1054 10.7037C14.1054 10.6452 14.086 10.5893 14.0517 10.5479C14.0174 10.5066 13.9706 10.4833 13.922 10.4833H12.5511V9.44449C12.5511 8.94518 12.6502 8.69171 13.1915 8.69171L13.9768 8.69137C14.078 8.69137 14.16 8.59272 14.16 8.47115V6.82244C14.16 6.70098 14.0781 6.60245 13.977 6.60222Z" fill="white"/>
</svg>
