<svg width="24" height="24" viewBox="0 0 24 24" fill="none" xmlns="http://www.w3.org/2000/svg">
<circle cx="12" cy="12" r="12" fill="#0A051E"/>
<path d="M17.6014 8.70353C17.1628 8.1685 16.3531 7.95026 14.8067 7.95026H9.19318C7.61137 7.95026 6.78791 8.18258 6.35098 8.7522C5.92499 9.30758 5.92499 10.1259 5.92499 11.2584V13.4171C5.92499 15.6112 6.43043 16.7253 9.19318 16.7253H14.8067C16.1478 16.7253 16.8909 16.5327 17.3716 16.0605C17.8646 15.5763 18.075 14.7858 18.075 13.4171V11.2584C18.075 10.0641 18.042 9.24093 17.6014 8.70353ZM13.7253 12.6358L11.1763 14.003C11.1193 14.0335 11.057 14.0487 10.9947 14.0487C10.9242 14.0487 10.8539 14.0292 10.7916 13.9905C10.6744 13.9176 10.6028 13.7872 10.6028 13.6465V10.9209C10.6028 10.7805 10.6742 10.6501 10.7912 10.5772C10.9083 10.5042 11.0539 10.4992 11.1754 10.564L13.7244 11.9223C13.8541 11.9914 13.9356 12.1288 13.9358 12.2787C13.9359 12.4288 13.8548 12.5664 13.7253 12.6358Z" fill="white"/>
</svg>
