<svg width="24" height="24" viewBox="0 0 24 24" fill="none" xmlns="http://www.w3.org/2000/svg">
<path d="M12 0C5.37 0 0 5.37 0 12C0 18.63 5.37 24 12 24C18.63 24 24 18.63 24 12C24 5.37 18.63 0 12 0Z" fill="#03050F"/>
<path d="M15.8921 10.812C16.2138 10.8945 16.5426 10.9396 16.8713 10.9396H16.8785C16.9857 10.9396 17 10.9396 17 10.827C17 10.3541 16.9786 9.05553 16.9786 8.92793C16.9786 8.87539 16.9786 8.87539 16.9214 8.87539C16.7927 8.87539 16.6641 8.86037 16.5354 8.83786C16.0708 8.76279 14.5698 7.93712 14.3125 6.57852C14.3054 6.54849 14.2482 6.21072 14.2482 6.0681C14.2482 6.00054 14.2411 6.00054 14.1839 6.00054H14.141H12.3756C12.2612 6.00054 12.2755 5.98553 12.2755 6.11314V14.1672C12.2755 14.2723 12.2684 14.3699 12.2541 14.4674C12.1611 14.9854 11.911 15.3907 11.4821 15.6684C11.1105 15.9086 10.7102 15.9762 10.2813 15.8861C10.1455 15.8561 10.024 15.8035 9.89538 15.751L9.86679 15.721C9.82391 15.6834 9.77388 15.6459 9.73099 15.6159C9.18063 15.2181 8.92332 14.6701 9.00195 13.9795C9.08057 13.2815 9.46653 12.8086 10.0955 12.5609C10.2813 12.4858 10.4815 12.4558 10.6816 12.4708C10.8103 12.4783 10.9389 12.4933 11.0676 12.5309C11.1105 12.5459 11.139 12.5234 11.139 12.4783V12.4258C11.139 11.9454 11.1176 10.887 11.1176 10.887V10.4742C11.1176 10.4292 11.0962 10.4216 11.0676 10.4216C10.8317 10.3916 10.5887 10.3916 10.3528 10.4066C10.0169 10.4367 9.7024 10.5042 9.38791 10.6243C8.89473 10.812 8.45874 11.0972 8.07992 11.4875C7.75828 11.8178 7.50097 12.2006 7.31513 12.6359C7.13645 13.0563 7.03638 13.4916 7.00779 13.942C6.9935 14.1372 7.00064 14.3398 7.01494 14.535C7.03638 14.8052 7.08641 15.0679 7.16504 15.3306C7.38661 16.0737 7.80116 16.6892 8.38726 17.1771C8.44444 17.2222 8.50162 17.2822 8.57309 17.3123C8.60883 17.3423 8.63742 17.3648 8.66601 17.3948C8.75893 17.4699 8.859 17.5374 8.96621 17.59C9.62378 17.9278 10.3099 18.0629 11.039 17.9728C11.9825 17.8527 12.7687 17.4173 13.3905 16.6592C13.9766 15.9461 14.2625 15.113 14.2625 14.1747V10.1664C14.2625 10.1364 14.2411 10.0914 14.2768 10.0764C14.3054 10.0614 14.334 10.0989 14.3554 10.1139C14.8272 10.4442 15.3418 10.6769 15.8921 10.812Z" fill="#E7EAFD"/>
</svg>
