<svg width="24" height="24" viewBox="0 0 24 24" fill="none" xmlns="http://www.w3.org/2000/svg">
<circle cx="12" cy="12" r="12" fill="#0A051E"/>
<g clip-path="url(#clip0_1255_20998)">
<path d="M18.075 8.39365C17.628 8.58358 17.1475 8.71149 16.6433 8.76915C17.1582 8.47408 17.5535 8.00652 17.7393 7.44933C17.2579 7.7226 16.7243 7.92125 16.1563 8.02832C15.7022 7.56464 15.0537 7.2749 14.3368 7.2749C12.7275 7.2749 11.5449 8.71198 11.9084 10.2038C9.83729 10.1045 8.00061 9.15482 6.77093 7.71145C6.11787 8.78368 6.43225 10.1864 7.54195 10.8967C7.13391 10.8841 6.74916 10.777 6.41352 10.5982C6.38618 11.7034 7.2139 12.7373 8.4127 12.9675C8.06187 13.0586 7.67762 13.0799 7.2868 13.0082C7.60371 13.9559 8.52407 14.6454 9.61555 14.6647C8.56761 15.4511 7.24731 15.8024 5.92499 15.6532C7.02811 16.33 8.33879 16.7249 9.74616 16.7249C14.3743 16.7249 16.9891 12.984 16.8311 9.62868C17.3181 9.29194 17.7409 8.87187 18.075 8.39365Z" fill="white"/>
</g>
<defs>
<clipPath id="clip0_1255_20998">
<rect width="13.5" height="13.5" fill="white" transform="translate(5.25 5.25)"/>
</clipPath>
</defs>
</svg>
