<svg width="20" height="20" viewBox="0 0 20 20" fill="none" xmlns="http://www.w3.org/2000/svg">
<path d="M10 1.25C5.1625 1.25 1.25 5.1625 1.25 10C1.25 12.3875 2.2 14.5375 3.75 16.1125V20L7.1875 18.275C8.075 18.575 9.0125 18.75 10 18.75C14.8375 18.75 18.75 14.8375 18.75 10C18.75 5.1625 14.8375 1.25 10 1.25ZM14.9875 13C14.85 13.3375 14.7 13.6875 14.5625 14.025C14.2 14.9375 12.95 15.3 11.8375 14.7C8.475 12.85 7.1125 11.575 5.2625 8.2125C4.65 7.1 5.0125 5.85 5.9375 5.4875C6.275 5.35 6.625 5.2 6.9625 5.0625C7.4 4.8875 7.9 5.1125 8.1 5.5375C8.375 6.125 8.6875 6.6875 9.025 7.225C9.275 7.625 9.2 8.1625 8.8125 8.4375C8.5625 8.6125 8.3125 8.7875 8.0625 8.975C8.7625 10.125 10 11.3125 11.075 11.9C11.25 11.65 11.425 11.4 11.6125 11.15C11.8875 10.775 12.425 10.6875 12.825 10.9375C13.3625 11.275 13.925 11.5875 14.5125 11.8625C14.9375 12.0625 15.1625 12.5625 14.9875 13Z" fill="#0A051E"/>
</svg>
